
<svg xmlns="http://www.w3.org/2000/svg"
     xmlns:xlink="http://www.w3.org/1999/xlink" version="1.1" width="489"
     height="311">
    <defs/>
    <g transform="translate(-281.265625,-150)">
        <rect x="320" y="300" width="90" height="90" fill="#6ccefb"
              stroke="#000" stroke-width="3" pointer-events="none"/>
        <path d="M 410 313 L 410 313" fill="none" stroke="#000" stroke-width="2"
              stroke-miterlimit="10" pointer-events="none"/>
        <path d="M 410 325 L 410 325" fill="none" stroke="#000" stroke-width="2"
              stroke-miterlimit="10" pointer-events="none"/>
        <path d="M 410 338 L 410 338" fill="none" stroke="#000" stroke-width="2"
              stroke-miterlimit="10" pointer-events="none"/>
        <path d="M 410 350 L 410 350" fill="none" stroke="#000" stroke-width="2"
              stroke-miterlimit="10" pointer-events="none"/>
        <path d="M 410 363 L 410 363" fill="none" stroke="#000" stroke-width="2"
              stroke-miterlimit="10" pointer-events="none"/>
        <path d="M 410 376 L 410 376" fill="none" stroke="#000" stroke-width="2"
              stroke-miterlimit="10" pointer-events="none"/>
        <path d="M 397 390 L 397 390" fill="none" stroke="#000" stroke-width="2"
              stroke-miterlimit="10" pointer-events="none"/>
        <path d="M 385 390 L 385 390" fill="none" stroke="#000" stroke-width="2"
              stroke-miterlimit="10" pointer-events="none"/>
        <path d="M 372 390 L 372 390" fill="none" stroke="#000" stroke-width="2"
              stroke-miterlimit="10" pointer-events="none"/>
        <path d="M 360 390 L 360 390" fill="none" stroke="#000" stroke-width="2"
              stroke-miterlimit="10" pointer-events="none"/>
        <path d="M 347 390 L 347 390" fill="none" stroke="#000" stroke-width="2"
              stroke-miterlimit="10" pointer-events="none"/>
        <path d="M 334 390 L 334 390" fill="none" stroke="#000" stroke-width="2"
              stroke-miterlimit="10" pointer-events="none"/>
        <path d="M 320 377 L 320 377" fill="none" stroke="#000" stroke-width="2"
              stroke-miterlimit="10" pointer-events="none"/>
        <path d="M 320 365 L 320 365" fill="none" stroke="#000" stroke-width="2"
              stroke-miterlimit="10" pointer-events="none"/>
        <path d="M 320 352 L 320 352" fill="none" stroke="#000" stroke-width="2"
              stroke-miterlimit="10" pointer-events="none"/>
        <path d="M 320 340 L 320 340" fill="none" stroke="#000" stroke-width="2"
              stroke-miterlimit="10" pointer-events="none"/>
        <path d="M 320 327 L 320 327" fill="none" stroke="#000" stroke-width="2"
              stroke-miterlimit="10" pointer-events="none"/>
        <path d="M 320 314 L 320 314" fill="none" stroke="#000" stroke-width="2"
              stroke-miterlimit="10" pointer-events="none"/>
        <path d="M 333 300 L 333 300" fill="none" stroke="#000" stroke-width="2"
              stroke-miterlimit="10" pointer-events="none"/>
        <path d="M 345 300 L 345 300" fill="none" stroke="#000" stroke-width="2"
              stroke-miterlimit="10" pointer-events="none"/>
        <path d="M 358 300 L 358 300" fill="none" stroke="#000" stroke-width="2"
              stroke-miterlimit="10" pointer-events="none"/>
        <path d="M 370 300 L 370 300" fill="none" stroke="#000" stroke-width="2"
              stroke-miterlimit="10" pointer-events="none"/>
        <path d="M 383 300 L 383 300" fill="none" stroke="#000" stroke-width="2"
              stroke-miterlimit="10" pointer-events="none"/>
        <path d="M 396 300 L 396 300" fill="none" stroke="#000" stroke-width="2"
              stroke-miterlimit="10" pointer-events="none"/>
        <rect x="350" y="300" width="40" height="20" rx="3" ry="3" fill="none"
              stroke="none" pointer-events="none"/>
        <g fill="#000" font-family="Arial,Helvetica" font-weight="bold"
           text-anchor="middle" font-size="12px">
            <text x="370" y="314">
                +V
            </text>
        </g>
        <rect x="350" y="370" width="40" height="20" rx="3" ry="3" fill="none"
              stroke="none" pointer-events="none"/>
        <g fill="#000" font-family="Arial,Helvetica" font-weight="bold"
           text-anchor="middle" font-size="12px">
            <text x="370" y="384">
                0V
            </text>
        </g>
        <rect x="370" y="340" width="40" height="20" rx="3" ry="3" fill="none"
              stroke="none" pointer-events="none"/>
        <g fill="#000" font-family="Arial,Helvetica" font-weight="bold"
           text-anchor="middle" font-size="12px">
            <text x="390" y="354">
                C.2
            </text>
        </g>
        <rect x="290" y="280" width="66" height="13" fill-opacity="0"
              fill="#dae2f2" stroke="#000000" stroke-opacity="0"
              pointer-events="none"/>
        <g fill="#000000" font-family="Arial,Helvetica" font-weight="bold"
           text-anchor="middle" font-size="12px">
            <text x="323" y="291">
                PICAXE08M2
            </text>
        </g>
        <rect x="739" y="319" width="2" height="2" fill="#000000" stroke="none"
              pointer-events="none"/>
        <rect x="739" y="369" width="2" height="2" fill="#000000" stroke="none"
              pointer-events="none"/>
        <rect x="739" y="319" width="2" height="2" fill="#000000" stroke="none"
              pointer-events="none"/>
        <rect x="739" y="369" width="2" height="2" fill="#000000" stroke="none"
              pointer-events="none"/>
        <path d="M 722 342 C 758 342 758 342 758 342" fill="none"
              stroke="#000000" stroke-width="2" stroke-linecap="round"
              stroke-miterlimit="10" pointer-events="none"/>
        <path d="M 731 349 C 749 349 749 349 749 349" fill="none"
              stroke="#000000" stroke-width="2" stroke-linecap="round"
              stroke-miterlimit="10" pointer-events="none"/>
        <path d="M 740 321 L 740 341" fill="none" stroke="#000000"
              stroke-width="2" stroke-linejoin="round" stroke-linecap="square"
              stroke-miterlimit="10" pointer-events="none"/>
        <path d="M 740 349 L 740 369" fill="none" stroke="#000000"
              stroke-width="2" stroke-linejoin="round" stroke-linecap="square"
              stroke-miterlimit="10" pointer-events="none"/>
        <path d="M 722 331 C 732 331 732 331 732 331" fill="none"
              stroke="#000000" stroke-width="2" stroke-linecap="round"
              stroke-miterlimit="10" pointer-events="none"/>
        <path d="M 727 326 C 727 336 727 336 727 336" fill="none"
              stroke="#000000" stroke-width="2" stroke-linecap="round"
              stroke-miterlimit="10" pointer-events="none"/>
        <path d="M 722 342 C 758 342 758 342 758 342" fill="none"
              stroke="#000000" stroke-width="2" stroke-linecap="round"
              stroke-miterlimit="10" pointer-events="none"/>
        <path d="M 731 349 C 749 349 749 349 749 349" fill="none"
              stroke="#000000" stroke-width="2" stroke-linecap="round"
              stroke-miterlimit="10" pointer-events="none"/>
        <path d="M 740 321 L 740 341" fill="none" stroke="#000000"
              stroke-width="2" stroke-linecap="square" stroke-miterlimit="10"
              pointer-events="none"/>
        <path d="M 740 349 L 740 369" fill="none" stroke="#000000"
              stroke-width="2" stroke-linecap="square" stroke-miterlimit="10"
              pointer-events="none"/>
        <path d="M 722 331 C 732 331 732 331 732 331" fill="none"
              stroke="#000000" stroke-width="2" stroke-linecap="round"
              stroke-miterlimit="10" pointer-events="none"/>
        <path d="M 727 326 C 727 336 727 336 727 336" fill="none"
              stroke="#000000" stroke-width="2" stroke-linecap="round"
              stroke-miterlimit="10" pointer-events="none"/>
        <rect x="736" y="316" width="8" height="8" fill="none" stroke="none"
              pointer-events="none"/>
        <rect x="736" y="366" width="8" height="8" fill="none" stroke="none"
              pointer-events="none"/>
        <rect x="750" y="320" width="15" height="14" fill-opacity="0"
              fill="#dae2f2" stroke="#000000" stroke-opacity="0"
              pointer-events="none"/>
        <g fill="#000000" font-family="Arial,Helvetica" font-weight="bold"
           text-anchor="middle" font-size="12px">
            <text x="758" y="331">
                5V
            </text>
        </g>
        <rect x="599" y="319" width="2" height="2" fill="#000000" stroke="none"
              pointer-events="none"/>
        <rect x="599" y="379" width="2" height="2" fill="#000000" stroke="none"
              pointer-events="none"/>
        <rect x="559" y="349" width="2" height="2" fill="#000000" stroke="none"
              pointer-events="none"/>
        <ellipse cx="590" cy="350" rx="24.813632765" ry="24.813632765"
                 fill="#ffffff" stroke="#000000" stroke-width="2"
                 pointer-events="none"/>
        <path d="M 600 321 L 600 335" fill="#000000" stroke="#000000"
              stroke-width="2" stroke-linecap="square" stroke-miterlimit="10"
              pointer-events="none"/>
        <path d="M 600 369 L 600 379" fill="#000000" stroke="#000000"
              stroke-width="2" stroke-linecap="square" stroke-miterlimit="10"
              pointer-events="none"/>
        <path d="M 600 335 L 585 335" fill="none" stroke="#000000"
              stroke-width="2" stroke-linejoin="round" stroke-linecap="round"
              stroke-miterlimit="10" pointer-events="none"/>
        <path d="M 600 365 L 585 365" fill="none" stroke="#000000"
              stroke-width="2" stroke-linejoin="round" stroke-linecap="round"
              stroke-miterlimit="10" pointer-events="none"/>
        <path d="M 585 345 L 585 355" fill="none" stroke="#000000"
              stroke-width="2" stroke-linejoin="round" stroke-linecap="round"
              stroke-miterlimit="10" pointer-events="none"/>
        <path d="M 585 360 L 585 370" fill="none" stroke="#000000"
              stroke-width="2" stroke-linejoin="round" stroke-linecap="round"
              stroke-miterlimit="10" pointer-events="none"/>
        <path d="M 585 340 L 585 330" fill="none" stroke="#000000"
              stroke-width="2" stroke-linejoin="round" stroke-linecap="round"
              stroke-miterlimit="10" pointer-events="none"/>
        <path d="M 592 350 L 600 350 L 600 369" fill="none" stroke="#000000"
              stroke-width="2" stroke-linejoin="round" stroke-linecap="round"
              stroke-miterlimit="10" pointer-events="none"/>
        <ellipse cx="600" cy="365" rx="2" ry="2" fill="none" stroke="#000000"
                 stroke-width="2" pointer-events="none"/>
        <path d="M 561 350 L 576 350" fill="#000000" stroke="#000000"
              stroke-width="2" stroke-linecap="square" stroke-miterlimit="10"
              pointer-events="none"/>
        <path d="M 577 335 L 577 365" fill="none" stroke="#000000"
              stroke-width="2" stroke-linecap="round" stroke-miterlimit="10"
              pointer-events="none"/>
        <path d="M 592 346 L 586 350 L 592 354 Z" fill="#000000"
              stroke="#000000" stroke-linejoin="round" stroke-linecap="round"
              stroke-miterlimit="10" pointer-events="none"/>
        <rect x="556" y="346" width="8" height="8" fill="none" stroke="none"
              pointer-events="none"/>
        <rect x="596" y="316" width="8" height="8" fill="none" stroke="none"
              pointer-events="none"/>
        <rect x="596" y="376" width="8" height="8" fill="none" stroke="none"
              pointer-events="none"/>
        <rect x="560" y="310" width="16" height="14" fill-opacity="0"
              fill="#dae2f2" stroke="#000000" stroke-opacity="0"
              pointer-events="none"/>
        <g fill="#000000" font-family="Arial,Helvetica" font-weight="bold"
           text-anchor="middle" font-size="12px">
            <text x="568" y="321">
                Q1
            </text>
        </g>
        <rect x="550" y="380" width="44" height="14" fill-opacity="0"
              fill="#dae2f2" stroke="#000000" stroke-opacity="0"
              pointer-events="none"/>
        <g fill="#000000" font-family="Arial,Helvetica" font-weight="bold"
           text-anchor="middle" font-size="12px">
            <text x="572" y="391">
                2N7000
            </text>
        </g>
        <rect x="459" y="369" width="2" height="2" fill="#000000" stroke="none"
              pointer-events="none"/>
        <rect x="459" y="429" width="2" height="2" fill="#000000" stroke="none"
              pointer-events="none"/>
        <path d="M 460 382 L 467 385 L 460 388" fill="none" stroke="#000000"
              stroke-width="2" stroke-linejoin="round" stroke-linecap="round"
              stroke-miterlimit="10" pointer-events="none"/>
        <path d="M 460 388 L 453 391 L 460 394" fill="none" stroke="#000000"
              stroke-width="2" stroke-linejoin="round" stroke-linecap="round"
              stroke-miterlimit="10" pointer-events="none"/>
        <path d="M 460 394 L 467 397 L 460 400" fill="none" stroke="#000000"
              stroke-width="2" stroke-linejoin="round" stroke-linecap="round"
              stroke-miterlimit="10" pointer-events="none"/>
        <path d="M 460 400 L 453 403 L 460 406" fill="none" stroke="#000000"
              stroke-width="2" stroke-linejoin="round" stroke-linecap="round"
              stroke-miterlimit="10" pointer-events="none"/>
        <path d="M 460 406 L 467 409 L 460 412" fill="none" stroke="#000000"
              stroke-width="2" stroke-linejoin="round" stroke-linecap="round"
              stroke-miterlimit="10" pointer-events="none"/>
        <path d="M 460 412 L 453 415 L 460 418" fill="none" stroke="#000000"
              stroke-width="2" stroke-linejoin="round" stroke-linecap="round"
              stroke-miterlimit="10" pointer-events="none"/>
        <path d="M 460 371 L 460 381" fill="#000000" stroke="#000000"
              stroke-width="2" stroke-linecap="square" stroke-miterlimit="10"
              pointer-events="none"/>
        <path d="M 460 419 L 460 429" fill="#000000" stroke="#000000"
              stroke-width="2" stroke-linecap="square" stroke-miterlimit="10"
              pointer-events="none"/>
        <rect x="456" y="366" width="8" height="8" fill="none" stroke="none"
              pointer-events="none"/>
        <rect x="456" y="426" width="8" height="8" fill="none" stroke="none"
              pointer-events="none"/>
        <rect x="420" y="400" width="27" height="14" fill-opacity="0"
              fill="#dae2f2" stroke="#000000" stroke-opacity="0"
              pointer-events="none"/>
        <g fill="#000000" font-family="Arial,Helvetica" font-weight="bold"
           text-anchor="middle" font-size="12px">
            <text x="434" y="411">
                100k
            </text>
        </g>
        <rect x="420" y="380" width="16" height="14" fill-opacity="0"
              fill="#dae2f2" stroke="#000000" stroke-opacity="0"
              pointer-events="none"/>
        <g fill="#000000" font-family="Arial,Helvetica" font-weight="bold"
           text-anchor="middle" font-size="12px">
            <text x="428" y="391">
                R1
            </text>
        </g>
        <rect x="549" y="209" width="2" height="2" fill="#000000" stroke="none"
              pointer-events="none"/>
        <rect x="549" y="269" width="2" height="2" fill="#000000" stroke="none"
              pointer-events="none"/>
        <path d="M 550 233 C 550 233 550 233 542 247 C 558 247 558 247 558 247 Z"
              fill="#000000" stroke="#000000" stroke-linejoin="round"
              stroke-linecap="round" stroke-miterlimit="10"
              pointer-events="none"/>
        <path d="M 550 211 L 550 269" fill="#000000" stroke="#000000"
              stroke-width="2" stroke-linecap="square" stroke-miterlimit="10"
              pointer-events="none"/>
        <path d="M 542 232 L 558 232" fill="none" stroke="#000000"
              stroke-width="2" stroke-linecap="round" stroke-miterlimit="10"
              pointer-events="none"/>
        <rect x="546" y="206" width="8" height="8" fill="none" stroke="none"
              pointer-events="none"/>
        <rect x="546" y="266" width="8" height="8" fill="none" stroke="none"
              pointer-events="none"/>
        <rect x="520" y="210" width="16" height="14" fill-opacity="0"
              fill="#dae2f2" stroke="#000000" stroke-opacity="0"
              pointer-events="none"/>
        <g fill="#000000" font-family="Arial,Helvetica" font-weight="bold"
           text-anchor="middle" font-size="12px">
            <text x="528" y="221">
                D1
            </text>
        </g>
        <rect x="490" y="230" width="44" height="14" fill-opacity="0"
              fill="#dae2f2" stroke="#000000" stroke-opacity="0"
              pointer-events="none"/>
        <g fill="#000000" font-family="Arial,Helvetica" font-weight="bold"
           text-anchor="middle" font-size="12px">
            <text x="512" y="241">
                1N4004
            </text>
        </g>
        <rect x="559" y="239" width="2" height="2" fill="#000000" stroke="none"
              transform="rotate(90,600,240)" pointer-events="none"/>
        <rect x="639" y="239" width="2" height="2" fill="#000000" stroke="none"
              transform="rotate(90,600,240)" pointer-events="none"/>
        <ellipse cx="600" cy="240" rx="20" ry="20" fill="#ffffff"
                 stroke="#000000" stroke-width="2"
                 transform="rotate(90,600,240)" pointer-events="none"/>
        <g fill="#000000" font-family="Arial,Helvetica" text-anchor="middle"
           font-size="14px" transform="rotate(90,600,240)">
            <text x="600" y="242">
                M
            </text>
        </g>
        <ellipse cx="600" cy="240" rx="20" ry="20" fill="#ffffff"
                 stroke="#000000" stroke-width="2"
                 transform="rotate(90,600,240)" pointer-events="none"/>
        <g fill="#000000" font-family="Arial,Helvetica" text-anchor="middle"
           font-size="14px" transform="rotate(90,600,240)">
            <text x="600" y="242">
                M
            </text>
        </g>
        <path d="M 561 240 L 569 240" fill="#ffffff" stroke="#000000"
              stroke-width="2" stroke-linecap="square" stroke-miterlimit="10"
              transform="rotate(90,600,240)" pointer-events="none"/>
        <path d="M 583 230 C 568 230 570 230 570 230 L 570 230 L 570 250 L 583 250"
              fill="#ffffff" stroke="#000000" stroke-width="2"
              stroke-linejoin="round" stroke-linecap="square"
              stroke-miterlimit="10" transform="rotate(90,600,240)"
              pointer-events="none"/>
        <path d="M 631 240 L 639 240" fill="#ffffff" stroke="#000000"
              stroke-width="2" stroke-linecap="square" stroke-miterlimit="10"
              transform="rotate(90,600,240)" pointer-events="none"/>
        <path d="M 617 230 C 632 230 630 230 630 230 L 630 230 L 630 250 L 617 250"
              fill="#ffffff" stroke="#000000" stroke-width="2"
              stroke-linejoin="round" stroke-linecap="square"
              stroke-miterlimit="10" transform="rotate(90,600,240)"
              pointer-events="none"/>
        <ellipse cx="600" cy="240" rx="20" ry="20" fill="#ffffff"
                 stroke="#000000" stroke-width="2"
                 transform="rotate(90,600,240)" pointer-events="none"/>
        <g fill="#000000" font-family="Arial,Helvetica" text-anchor="middle"
           font-size="14px" transform="rotate(90,600,240)">
            <text x="600" y="242">
                M
            </text>
        </g>
        <path d="M 572 240 C 577 240 577 240 577 240" fill="none"
              stroke="#000000" stroke-linecap="round" stroke-miterlimit="10"
              transform="rotate(90,600,240)" pointer-events="none"/>
        <path d="M 575 238 C 575 243 575 243 575 243" fill="none"
              stroke="#000000" stroke-linecap="round" stroke-miterlimit="10"
              transform="rotate(90,600,240)" pointer-events="none"/>
        <path d="M 623 240 C 628 240 628 240 628 240" fill="none"
              stroke="#000000" stroke-linecap="round" stroke-miterlimit="10"
              transform="rotate(90,600,240)" pointer-events="none"/>
        <rect x="596" y="196" width="8" height="8" fill="none" stroke="none"
              pointer-events="none"/>
        <rect x="596" y="276" width="8" height="8" fill="none" stroke="none"
              pointer-events="none"/>
        <path d="M 600 280 L 600 320" fill="none" stroke="#000000"
              stroke-width="2" stroke-miterlimit="10" pointer-events="none"/>
        <path d="M 550 270 L 550 280 L 600 280" fill="none" stroke="#000000"
              stroke-width="2" stroke-miterlimit="10" pointer-events="none"/>
        <path d="M 550 210 L 550 200 L 600 200" fill="none" stroke="#000000"
              stroke-width="2" stroke-miterlimit="10" pointer-events="none"/>
        <path d="M 740 320 L 740 160 L 600 160 L 600 200" fill="none"
              stroke="#000000" stroke-width="2" stroke-miterlimit="10"
              pointer-events="none"/>
        <rect x="519" y="319" width="2" height="2" fill="#000000" stroke="none"
              transform="rotate(90,520,350)" pointer-events="none"/>
        <rect x="519" y="379" width="2" height="2" fill="#000000" stroke="none"
              transform="rotate(90,520,350)" pointer-events="none"/>
        <path d="M 520 332 L 527 335 L 520 338" fill="none" stroke="#000000"
              stroke-width="2" stroke-linejoin="round" stroke-linecap="round"
              stroke-miterlimit="10" transform="rotate(90,520,350)"
              pointer-events="none"/>
        <path d="M 520 338 L 513 341 L 520 344" fill="none" stroke="#000000"
              stroke-width="2" stroke-linejoin="round" stroke-linecap="round"
              stroke-miterlimit="10" transform="rotate(90,520,350)"
              pointer-events="none"/>
        <path d="M 520 344 L 527 347 L 520 350" fill="none" stroke="#000000"
              stroke-width="2" stroke-linejoin="round" stroke-linecap="round"
              stroke-miterlimit="10" transform="rotate(90,520,350)"
              pointer-events="none"/>
        <path d="M 520 350 L 513 353 L 520 356" fill="none" stroke="#000000"
              stroke-width="2" stroke-linejoin="round" stroke-linecap="round"
              stroke-miterlimit="10" transform="rotate(90,520,350)"
              pointer-events="none"/>
        <path d="M 520 356 L 527 359 L 520 362" fill="none" stroke="#000000"
              stroke-width="2" stroke-linejoin="round" stroke-linecap="round"
              stroke-miterlimit="10" transform="rotate(90,520,350)"
              pointer-events="none"/>
        <path d="M 520 362 L 513 365 L 520 368" fill="none" stroke="#000000"
              stroke-width="2" stroke-linejoin="round" stroke-linecap="round"
              stroke-miterlimit="10" transform="rotate(90,520,350)"
              pointer-events="none"/>
        <path d="M 520 321 L 520 331" fill="#000000" stroke="#000000"
              stroke-width="2" stroke-linecap="square" stroke-miterlimit="10"
              transform="rotate(90,520,350)" pointer-events="none"/>
        <path d="M 520 369 L 520 379" fill="#000000" stroke="#000000"
              stroke-width="2" stroke-linecap="square" stroke-miterlimit="10"
              transform="rotate(90,520,350)" pointer-events="none"/>
        <rect x="546" y="346" width="8" height="8" fill="none" stroke="none"
              pointer-events="none"/>
        <rect x="486" y="346" width="8" height="8" fill="none" stroke="none"
              pointer-events="none"/>
        <rect x="510" y="360" width="20" height="14" fill-opacity="0"
              fill="#dae2f2" stroke="#000000" stroke-opacity="0"
              pointer-events="none"/>
        <g fill="#000000" font-family="Arial,Helvetica" font-weight="bold"
           text-anchor="middle" font-size="12px">
            <text x="520" y="371">
                10k
            </text>
        </g>
        <rect x="510" y="320" width="16" height="14" fill-opacity="0"
              fill="#dae2f2" stroke="#000000" stroke-opacity="0"
              pointer-events="none"/>
        <g fill="#000000" font-family="Arial,Helvetica" font-weight="bold"
           text-anchor="middle" font-size="12px">
            <text x="518" y="331">
                R2
            </text>
        </g>
        <path d="M 550 350 L 560 350" fill="none" stroke="#000000"
              stroke-width="2" stroke-miterlimit="10" pointer-events="none"/>
        <path d="M 490 350 L 460 350 L 460 370" fill="none" stroke="#000000"
              stroke-width="2" stroke-miterlimit="10" pointer-events="none"/>
        <path d="M 460 430 L 460 450 L 740 450 L 740 370" fill="none"
              stroke="#000000" stroke-width="2" stroke-miterlimit="10"
              pointer-events="none"/>
        <path d="M 347 390 L 360 390 Q 370 390 370 400 L 370 440 Q 370 450 380 450 L 490 450"
              fill="none" stroke="#000000" stroke-width="2"
              stroke-miterlimit="10" pointer-events="none"/>
        <path d="M 410 350 L 480 350 Q 490 350 490 350 L 490 350" fill="none"
              stroke="#000000" stroke-width="2" stroke-miterlimit="10"
              pointer-events="none"/>
        <path d="M 345 300 L 360 300 Q 370 300 370 290 L 370 170 Q 370 160 380 160 L 600 160"
              fill="none" stroke="#000000" stroke-width="2"
              stroke-miterlimit="10" pointer-events="none"/>
        <path d="M 600 380 L 600 448" fill="none" stroke="#000000"
              stroke-width="2" stroke-miterlimit="10" pointer-events="none"/>
        <ellipse cx="600" cy="450" rx="2" ry="2" fill="#000000" stroke="#000000"
                 stroke-width="2" pointer-events="none"/>
        <rect x="679" y="319" width="2" height="2" fill="#000000" stroke="none"
              pointer-events="none"/>
        <rect x="679" y="369" width="2" height="2" fill="#000000" stroke="none"
              pointer-events="none"/>
        <path d="M 669 341 C 691 341 691 341 691 341" fill="none"
              stroke="#000000" stroke-width="2" stroke-linecap="round"
              stroke-miterlimit="10" pointer-events="none"/>
        <path d="M 669 349 C 691 349 691 349 691 349" fill="none"
              stroke="#000000" stroke-width="2" stroke-linecap="round"
              stroke-miterlimit="10" pointer-events="none"/>
        <path d="M 680 321 L 680 340" fill="#000000" stroke="#000000"
              stroke-width="2" stroke-linecap="square" stroke-miterlimit="10"
              pointer-events="none"/>
        <path d="M 680 350 L 680 369" fill="#000000" stroke="#000000"
              stroke-width="2" stroke-linecap="square" stroke-miterlimit="10"
              pointer-events="none"/>
        <rect x="676" y="316" width="8" height="8" fill="none" stroke="none"
              pointer-events="none"/>
        <rect x="676" y="366" width="8" height="8" fill="none" stroke="none"
              pointer-events="none"/>
        <rect x="646" y="320" width="16" height="14" fill-opacity="0"
              fill="#dae2f2" stroke="#000000" stroke-opacity="0"
              pointer-events="none"/>
        <g fill="#000000" font-family="Arial,Helvetica" font-weight="bold"
           text-anchor="middle" font-size="12px">
            <text x="654" y="331">
                C1
            </text>
        </g>
        <rect x="629" y="346" width="35" height="14" fill-opacity="0"
              fill="#dae2f2" stroke="#000000" stroke-opacity="0"
              pointer-events="none"/>
        <g fill="#000000" font-family="Arial,Helvetica" font-weight="bold"
           text-anchor="middle" font-size="12px">
            <text x="647" y="357">
                100nF
            </text>
        </g>
        <path d="M 680 320 L 680 162" fill="none" stroke="#000000"
              stroke-width="2" stroke-miterlimit="10" pointer-events="none"/>
        <ellipse cx="680" cy="160" rx="2" ry="2" fill="#000000" stroke="#000000"
                 stroke-width="2" pointer-events="none"/>
        <path d="M 680 370 L 680 448" fill="none" stroke="#000000"
              stroke-width="2" stroke-miterlimit="10" pointer-events="none"/>
        <ellipse cx="680" cy="450" rx="2" ry="2" fill="#000000" stroke="#000000"
                 stroke-width="2" pointer-events="none"/>
    </g>
</svg>